<svg xmlns="http://www.w3.org/2000/svg" width="834" height="666" viewBox="0 0 834 666" font-family="ui-monospace, 'SF Mono', SFMono-Regular, Menlo, Consolas, 'DejaVu Sans Mono', monospace" font-size="14">
  <rect width="834" height="666" rx="10" fill="#0b0e14"/>
  <path d="M0 10a10 10 0 0 1 10-10h814a10 10 0 0 1 10 10v28H0z" fill="#161b26"/>
  <circle cx="20" cy="20" r="6" fill="#ff5f57"/><circle cx="38" cy="20" r="6" fill="#febc2e"/><circle cx="56" cy="20" r="6" fill="#28c840"/>
  <text x="417" y="25" fill="#6b7686" font-size="12" text-anchor="middle">nimrun</text>

<rect x="38.80" y="52.00" width="8.40" height="20.00" fill="rgb(64,104,0)"/><rect x="47.20" y="52.00" width="8.40" height="20.00" fill="rgb(66,107,0)"/><rect x="55.60" y="52.00" width="8.40" height="20.00" fill="rgb(68,110,0)"/><rect x="97.60" y="52.00" width="8.40" height="20.00" fill="rgb(79,127,0)"/><rect x="106.00" y="52.00" width="8.40" height="20.00" fill="rgb(81,130,0)"/><rect x="122.80" y="52.00" width="8.40" height="20.00" fill="rgb(86,136,0)"/><rect x="131.20" y="52.00" width="8.40" height="20.00" fill="rgb(88,140,0)"/><rect x="148.00" y="52.00" width="8.40" height="20.00" fill="rgb(92,146,0)"/><rect x="156.40" y="52.00" width="8.40" height="20.00" fill="rgb(94,149,0)"/><rect x="164.80" y="52.00" width="8.40" height="20.00" fill="rgb(96,153,0)"/><rect x="206.80" y="52.00" width="8.40" height="20.00" fill="rgb(107,169,0)"/><rect x="215.20" y="52.00" width="8.40" height="20.00" fill="rgb(109,172,0)"/><rect x="223.60" y="52.00" width="8.40" height="20.00" fill="rgb(112,175,0)"/><rect x="240.40" y="52.00" width="8.40" height="20.00" fill="rgb(116,182,0)"/><rect x="248.80" y="52.00" width="8.40" height="20.00" fill="rgb(118,185,0)"/><rect x="257.20" y="52.00" width="8.40" height="20.00" fill="rgb(121,188,5)"/><rect x="265.60" y="52.00" width="8.40" height="20.00" fill="rgb(125,191,10)"/><rect x="274.00" y="52.00" width="8.40" height="20.00" fill="rgb(128,193,14)"/><rect x="282.40" y="52.00" width="8.40" height="20.00" fill="rgb(131,196,19)"/><rect x="307.60" y="52.00" width="8.40" height="20.00" fill="rgb(141,205,34)"/><rect x="316.00" y="52.00" width="8.40" height="20.00" fill="rgb(144,207,38)"/><rect x="358.00" y="52.00" width="8.40" height="20.00" fill="rgb(161,221,62)"/><rect x="366.40" y="52.00" width="8.40" height="20.00" fill="rgb(164,224,67)"/><rect x="383.20" y="52.00" width="8.40" height="20.00" fill="rgb(170,230,77)"/><rect x="391.60" y="52.00" width="8.40" height="20.00" fill="rgb(174,233,82)"/><rect x="400.00" y="52.00" width="8.40" height="20.00" fill="rgb(177,235,86)"/><rect x="442.00" y="52.00" width="8.40" height="20.00" fill="rgb(193,249,110)"/><rect x="450.40" y="52.00" width="8.40" height="20.00" fill="rgb(197,252,115)"/><text x="64.0" y="66" fill="rgb(70,114,0)" textLength="8.40" lengthAdjust="spacing" xml:space="preserve">╗</text><text x="114.4" y="66" fill="rgb(83,133,0)" textLength="8.40" lengthAdjust="spacing" xml:space="preserve">╗</text><text x="139.6" y="66" fill="rgb(90,143,0)" textLength="8.40" lengthAdjust="spacing" xml:space="preserve">╗</text><text x="173.2" y="66" fill="rgb(99,156,0)" textLength="8.40" lengthAdjust="spacing" xml:space="preserve">╗</text><text x="232.0" y="66" fill="rgb(114,179,0)" textLength="8.40" lengthAdjust="spacing" xml:space="preserve">╗</text><text x="290.8" y="66" fill="rgb(134,199,24)" textLength="8.40" lengthAdjust="spacing" xml:space="preserve">╗</text><text x="324.4" y="66" fill="rgb(148,210,43)" textLength="8.40" lengthAdjust="spacing" xml:space="preserve">╗</text><text x="374.8" y="66" fill="rgb(167,227,72)" textLength="8.40" lengthAdjust="spacing" xml:space="preserve">╗</text><text x="408.4" y="66" fill="rgb(180,238,91)" textLength="8.40" lengthAdjust="spacing" xml:space="preserve">╗</text><text x="458.8" y="66" fill="rgb(200,255,120)" textLength="8.40" lengthAdjust="spacing" xml:space="preserve">╗</text>
<rect x="38.80" y="72.00" width="8.40" height="20.00" fill="rgb(64,104,0)"/><rect x="47.20" y="72.00" width="8.40" height="20.00" fill="rgb(66,107,0)"/><rect x="55.60" y="72.00" width="8.40" height="20.00" fill="rgb(68,110,0)"/><rect x="64.00" y="72.00" width="8.40" height="20.00" fill="rgb(70,114,0)"/><rect x="97.60" y="72.00" width="8.40" height="20.00" fill="rgb(79,127,0)"/><rect x="106.00" y="72.00" width="8.40" height="20.00" fill="rgb(81,130,0)"/><rect x="122.80" y="72.00" width="8.40" height="20.00" fill="rgb(86,136,0)"/><rect x="131.20" y="72.00" width="8.40" height="20.00" fill="rgb(88,140,0)"/><rect x="148.00" y="72.00" width="8.40" height="20.00" fill="rgb(92,146,0)"/><rect x="156.40" y="72.00" width="8.40" height="20.00" fill="rgb(94,149,0)"/><rect x="164.80" y="72.00" width="8.40" height="20.00" fill="rgb(96,153,0)"/><rect x="173.20" y="72.00" width="8.40" height="20.00" fill="rgb(99,156,0)"/><rect x="198.40" y="72.00" width="8.40" height="20.00" fill="rgb(105,166,0)"/><rect x="206.80" y="72.00" width="8.40" height="20.00" fill="rgb(107,169,0)"/><rect x="215.20" y="72.00" width="8.40" height="20.00" fill="rgb(109,172,0)"/><rect x="223.60" y="72.00" width="8.40" height="20.00" fill="rgb(112,175,0)"/><rect x="240.40" y="72.00" width="8.40" height="20.00" fill="rgb(116,182,0)"/><rect x="248.80" y="72.00" width="8.40" height="20.00" fill="rgb(118,185,0)"/><rect x="282.40" y="72.00" width="8.40" height="20.00" fill="rgb(131,196,19)"/><rect x="290.80" y="72.00" width="8.40" height="20.00" fill="rgb(134,199,24)"/><rect x="307.60" y="72.00" width="8.40" height="20.00" fill="rgb(141,205,34)"/><rect x="316.00" y="72.00" width="8.40" height="20.00" fill="rgb(144,207,38)"/><rect x="358.00" y="72.00" width="8.40" height="20.00" fill="rgb(161,221,62)"/><rect x="366.40" y="72.00" width="8.40" height="20.00" fill="rgb(164,224,67)"/><rect x="383.20" y="72.00" width="8.40" height="20.00" fill="rgb(170,230,77)"/><rect x="391.60" y="72.00" width="8.40" height="20.00" fill="rgb(174,233,82)"/><rect x="400.00" y="72.00" width="8.40" height="20.00" fill="rgb(177,235,86)"/><rect x="408.40" y="72.00" width="8.40" height="20.00" fill="rgb(180,238,91)"/><rect x="442.00" y="72.00" width="8.40" height="20.00" fill="rgb(193,249,110)"/><rect x="450.40" y="72.00" width="8.40" height="20.00" fill="rgb(197,252,115)"/><text x="72.4" y="86" fill="rgb(73,117,0)" textLength="8.40" lengthAdjust="spacing" xml:space="preserve">╗</text><text x="114.4" y="86" fill="rgb(83,133,0)" textLength="8.40" lengthAdjust="spacing" xml:space="preserve">║</text><text x="139.6" y="86" fill="rgb(90,143,0)" textLength="8.40" lengthAdjust="spacing" xml:space="preserve">║</text><text x="181.6" y="86" fill="rgb(101,159,0)" textLength="8.40" lengthAdjust="spacing" xml:space="preserve">╗</text><text x="232.0" y="86" fill="rgb(114,179,0)" textLength="8.40" lengthAdjust="spacing" xml:space="preserve">║</text><text x="257.2" y="86" fill="rgb(121,188,5)" textLength="8.40" lengthAdjust="spacing" xml:space="preserve">╔</text><text x="265.6" y="86" fill="rgb(125,191,10)" textLength="8.40" lengthAdjust="spacing" xml:space="preserve">═</text><text x="274.0" y="86" fill="rgb(128,193,14)" textLength="8.40" lengthAdjust="spacing" xml:space="preserve">═</text><text x="299.2" y="86" fill="rgb(138,202,29)" textLength="8.40" lengthAdjust="spacing" xml:space="preserve">╗</text><text x="324.4" y="86" fill="rgb(148,210,43)" textLength="8.40" lengthAdjust="spacing" xml:space="preserve">║</text><text x="374.8" y="86" fill="rgb(167,227,72)" textLength="8.40" lengthAdjust="spacing" xml:space="preserve">║</text><text x="416.8" y="86" fill="rgb(184,241,96)" textLength="8.40" lengthAdjust="spacing" xml:space="preserve">╗</text><text x="458.8" y="86" fill="rgb(200,255,120)" textLength="8.40" lengthAdjust="spacing" xml:space="preserve">║</text>
<rect x="38.80" y="92.00" width="8.40" height="20.00" fill="rgb(64,104,0)"/><rect x="47.20" y="92.00" width="8.40" height="20.00" fill="rgb(66,107,0)"/><rect x="64.00" y="92.00" width="8.40" height="20.00" fill="rgb(70,114,0)"/><rect x="72.40" y="92.00" width="8.40" height="20.00" fill="rgb(73,117,0)"/><rect x="97.60" y="92.00" width="8.40" height="20.00" fill="rgb(79,127,0)"/><rect x="106.00" y="92.00" width="8.40" height="20.00" fill="rgb(81,130,0)"/><rect x="122.80" y="92.00" width="8.40" height="20.00" fill="rgb(86,136,0)"/><rect x="131.20" y="92.00" width="8.40" height="20.00" fill="rgb(88,140,0)"/><rect x="148.00" y="92.00" width="8.40" height="20.00" fill="rgb(92,146,0)"/><rect x="156.40" y="92.00" width="8.40" height="20.00" fill="rgb(94,149,0)"/><rect x="173.20" y="92.00" width="8.40" height="20.00" fill="rgb(99,156,0)"/><rect x="181.60" y="92.00" width="8.40" height="20.00" fill="rgb(101,159,0)"/><rect x="190.00" y="92.00" width="8.40" height="20.00" fill="rgb(103,162,0)"/><rect x="198.40" y="92.00" width="8.40" height="20.00" fill="rgb(105,166,0)"/><rect x="215.20" y="92.00" width="8.40" height="20.00" fill="rgb(109,172,0)"/><rect x="223.60" y="92.00" width="8.40" height="20.00" fill="rgb(112,175,0)"/><rect x="240.40" y="92.00" width="8.40" height="20.00" fill="rgb(116,182,0)"/><rect x="248.80" y="92.00" width="8.40" height="20.00" fill="rgb(118,185,0)"/><rect x="257.20" y="92.00" width="8.40" height="20.00" fill="rgb(121,188,5)"/><rect x="265.60" y="92.00" width="8.40" height="20.00" fill="rgb(125,191,10)"/><rect x="274.00" y="92.00" width="8.40" height="20.00" fill="rgb(128,193,14)"/><rect x="282.40" y="92.00" width="8.40" height="20.00" fill="rgb(131,196,19)"/><rect x="307.60" y="92.00" width="8.40" height="20.00" fill="rgb(141,205,34)"/><rect x="316.00" y="92.00" width="8.40" height="20.00" fill="rgb(144,207,38)"/><rect x="358.00" y="92.00" width="8.40" height="20.00" fill="rgb(161,221,62)"/><rect x="366.40" y="92.00" width="8.40" height="20.00" fill="rgb(164,224,67)"/><rect x="383.20" y="92.00" width="8.40" height="20.00" fill="rgb(170,230,77)"/><rect x="391.60" y="92.00" width="8.40" height="20.00" fill="rgb(174,233,82)"/><rect x="408.40" y="92.00" width="8.40" height="20.00" fill="rgb(180,238,91)"/><rect x="416.80" y="92.00" width="8.40" height="20.00" fill="rgb(184,241,96)"/><rect x="442.00" y="92.00" width="8.40" height="20.00" fill="rgb(193,249,110)"/><rect x="450.40" y="92.00" width="8.40" height="20.00" fill="rgb(197,252,115)"/><text x="55.6" y="106" fill="rgb(68,110,0)" textLength="8.40" lengthAdjust="spacing" xml:space="preserve">╔</text><text x="80.8" y="106" fill="rgb(75,120,0)" textLength="8.40" lengthAdjust="spacing" xml:space="preserve">╗</text><text x="114.4" y="106" fill="rgb(83,133,0)" textLength="8.40" lengthAdjust="spacing" xml:space="preserve">║</text><text x="139.6" y="106" fill="rgb(90,143,0)" textLength="8.40" lengthAdjust="spacing" xml:space="preserve">║</text><text x="164.8" y="106" fill="rgb(96,153,0)" textLength="8.40" lengthAdjust="spacing" xml:space="preserve">╔</text><text x="206.8" y="106" fill="rgb(107,169,0)" textLength="8.40" lengthAdjust="spacing" xml:space="preserve">╔</text><text x="232.0" y="106" fill="rgb(114,179,0)" textLength="8.40" lengthAdjust="spacing" xml:space="preserve">║</text><text x="290.8" y="106" fill="rgb(134,199,24)" textLength="8.40" lengthAdjust="spacing" xml:space="preserve">╔</text><text x="299.2" y="106" fill="rgb(138,202,29)" textLength="8.40" lengthAdjust="spacing" xml:space="preserve">╝</text><text x="324.4" y="106" fill="rgb(148,210,43)" textLength="8.40" lengthAdjust="spacing" xml:space="preserve">║</text><text x="374.8" y="106" fill="rgb(167,227,72)" textLength="8.40" lengthAdjust="spacing" xml:space="preserve">║</text><text x="400.0" y="106" fill="rgb(177,235,86)" textLength="8.40" lengthAdjust="spacing" xml:space="preserve">╔</text><text x="425.2" y="106" fill="rgb(187,244,101)" textLength="8.40" lengthAdjust="spacing" xml:space="preserve">╗</text><text x="458.8" y="106" fill="rgb(200,255,120)" textLength="8.40" lengthAdjust="spacing" xml:space="preserve">║</text>
<rect x="38.80" y="112.00" width="8.40" height="20.00" fill="rgb(64,104,0)"/><rect x="47.20" y="112.00" width="8.40" height="20.00" fill="rgb(66,107,0)"/><rect x="72.40" y="112.00" width="8.40" height="20.00" fill="rgb(73,117,0)"/><rect x="80.80" y="112.00" width="8.40" height="20.00" fill="rgb(75,120,0)"/><rect x="97.60" y="112.00" width="8.40" height="20.00" fill="rgb(79,127,0)"/><rect x="106.00" y="112.00" width="8.40" height="20.00" fill="rgb(81,130,0)"/><rect x="122.80" y="112.00" width="8.40" height="20.00" fill="rgb(86,136,0)"/><rect x="131.20" y="112.00" width="8.40" height="20.00" fill="rgb(88,140,0)"/><rect x="148.00" y="112.00" width="8.40" height="20.00" fill="rgb(92,146,0)"/><rect x="156.40" y="112.00" width="8.40" height="20.00" fill="rgb(94,149,0)"/><rect x="181.60" y="112.00" width="8.40" height="20.00" fill="rgb(101,159,0)"/><rect x="190.00" y="112.00" width="8.40" height="20.00" fill="rgb(103,162,0)"/><rect x="215.20" y="112.00" width="8.40" height="20.00" fill="rgb(109,172,0)"/><rect x="223.60" y="112.00" width="8.40" height="20.00" fill="rgb(112,175,0)"/><rect x="240.40" y="112.00" width="8.40" height="20.00" fill="rgb(116,182,0)"/><rect x="248.80" y="112.00" width="8.40" height="20.00" fill="rgb(118,185,0)"/><rect x="282.40" y="112.00" width="8.40" height="20.00" fill="rgb(131,196,19)"/><rect x="290.80" y="112.00" width="8.40" height="20.00" fill="rgb(134,199,24)"/><rect x="307.60" y="112.00" width="8.40" height="20.00" fill="rgb(141,205,34)"/><rect x="316.00" y="112.00" width="8.40" height="20.00" fill="rgb(144,207,38)"/><rect x="358.00" y="112.00" width="8.40" height="20.00" fill="rgb(161,221,62)"/><rect x="366.40" y="112.00" width="8.40" height="20.00" fill="rgb(164,224,67)"/><rect x="383.20" y="112.00" width="8.40" height="20.00" fill="rgb(170,230,77)"/><rect x="391.60" y="112.00" width="8.40" height="20.00" fill="rgb(174,233,82)"/><rect x="416.80" y="112.00" width="8.40" height="20.00" fill="rgb(184,241,96)"/><rect x="425.20" y="112.00" width="8.40" height="20.00" fill="rgb(187,244,101)"/><rect x="442.00" y="112.00" width="8.40" height="20.00" fill="rgb(193,249,110)"/><rect x="450.40" y="112.00" width="8.40" height="20.00" fill="rgb(197,252,115)"/><text x="55.6" y="126" fill="rgb(68,110,0)" textLength="8.40" lengthAdjust="spacing" xml:space="preserve">║</text><text x="64.0" y="126" fill="rgb(70,114,0)" textLength="8.40" lengthAdjust="spacing" xml:space="preserve">╚</text><text x="89.2" y="126" fill="rgb(77,123,0)" textLength="8.40" lengthAdjust="spacing" xml:space="preserve">╗</text><text x="114.4" y="126" fill="rgb(83,133,0)" textLength="8.40" lengthAdjust="spacing" xml:space="preserve">║</text><text x="139.6" y="126" fill="rgb(90,143,0)" textLength="8.40" lengthAdjust="spacing" xml:space="preserve">║</text><text x="164.8" y="126" fill="rgb(96,153,0)" textLength="8.40" lengthAdjust="spacing" xml:space="preserve">║</text><text x="173.2" y="126" fill="rgb(99,156,0)" textLength="8.40" lengthAdjust="spacing" xml:space="preserve">╚</text><text x="198.4" y="126" fill="rgb(105,166,0)" textLength="8.40" lengthAdjust="spacing" xml:space="preserve">╔</text><text x="206.8" y="126" fill="rgb(107,169,0)" textLength="8.40" lengthAdjust="spacing" xml:space="preserve">╝</text><text x="232.0" y="126" fill="rgb(114,179,0)" textLength="8.40" lengthAdjust="spacing" xml:space="preserve">║</text><text x="257.2" y="126" fill="rgb(121,188,5)" textLength="8.40" lengthAdjust="spacing" xml:space="preserve">╔</text><text x="265.6" y="126" fill="rgb(125,191,10)" textLength="8.40" lengthAdjust="spacing" xml:space="preserve">═</text><text x="274.0" y="126" fill="rgb(128,193,14)" textLength="8.40" lengthAdjust="spacing" xml:space="preserve">═</text><text x="299.2" y="126" fill="rgb(138,202,29)" textLength="8.40" lengthAdjust="spacing" xml:space="preserve">╗</text><text x="324.4" y="126" fill="rgb(148,210,43)" textLength="8.40" lengthAdjust="spacing" xml:space="preserve">║</text><text x="374.8" y="126" fill="rgb(167,227,72)" textLength="8.40" lengthAdjust="spacing" xml:space="preserve">║</text><text x="400.0" y="126" fill="rgb(177,235,86)" textLength="8.40" lengthAdjust="spacing" xml:space="preserve">║</text><text x="408.4" y="126" fill="rgb(180,238,91)" textLength="8.40" lengthAdjust="spacing" xml:space="preserve">╚</text><text x="433.6" y="126" fill="rgb(190,247,106)" textLength="8.40" lengthAdjust="spacing" xml:space="preserve">╗</text><text x="458.8" y="126" fill="rgb(200,255,120)" textLength="8.40" lengthAdjust="spacing" xml:space="preserve">║</text>
<rect x="38.80" y="132.00" width="8.40" height="20.00" fill="rgb(64,104,0)"/><rect x="47.20" y="132.00" width="8.40" height="20.00" fill="rgb(66,107,0)"/><rect x="80.80" y="132.00" width="8.40" height="20.00" fill="rgb(75,120,0)"/><rect x="89.20" y="132.00" width="8.40" height="20.00" fill="rgb(77,123,0)"/><rect x="97.60" y="132.00" width="8.40" height="20.00" fill="rgb(79,127,0)"/><rect x="106.00" y="132.00" width="8.40" height="20.00" fill="rgb(81,130,0)"/><rect x="122.80" y="132.00" width="8.40" height="20.00" fill="rgb(86,136,0)"/><rect x="131.20" y="132.00" width="8.40" height="20.00" fill="rgb(88,140,0)"/><rect x="148.00" y="132.00" width="8.40" height="20.00" fill="rgb(92,146,0)"/><rect x="156.40" y="132.00" width="8.40" height="20.00" fill="rgb(94,149,0)"/><rect x="215.20" y="132.00" width="8.40" height="20.00" fill="rgb(109,172,0)"/><rect x="223.60" y="132.00" width="8.40" height="20.00" fill="rgb(112,175,0)"/><rect x="240.40" y="132.00" width="8.40" height="20.00" fill="rgb(116,182,0)"/><rect x="248.80" y="132.00" width="8.40" height="20.00" fill="rgb(118,185,0)"/><rect x="282.40" y="132.00" width="8.40" height="20.00" fill="rgb(131,196,19)"/><rect x="290.80" y="132.00" width="8.40" height="20.00" fill="rgb(134,199,24)"/><rect x="316.00" y="132.00" width="8.40" height="20.00" fill="rgb(144,207,38)"/><rect x="324.40" y="132.00" width="8.40" height="20.00" fill="rgb(148,210,43)"/><rect x="332.80" y="132.00" width="8.40" height="20.00" fill="rgb(151,213,48)"/><rect x="341.20" y="132.00" width="8.40" height="20.00" fill="rgb(154,216,53)"/><rect x="349.60" y="132.00" width="8.40" height="20.00" fill="rgb(157,219,58)"/><rect x="358.00" y="132.00" width="8.40" height="20.00" fill="rgb(161,221,62)"/><rect x="383.20" y="132.00" width="8.40" height="20.00" fill="rgb(170,230,77)"/><rect x="391.60" y="132.00" width="8.40" height="20.00" fill="rgb(174,233,82)"/><rect x="425.20" y="132.00" width="8.40" height="20.00" fill="rgb(187,244,101)"/><rect x="433.60" y="132.00" width="8.40" height="20.00" fill="rgb(190,247,106)"/><rect x="442.00" y="132.00" width="8.40" height="20.00" fill="rgb(193,249,110)"/><rect x="450.40" y="132.00" width="8.40" height="20.00" fill="rgb(197,252,115)"/><text x="55.6" y="146" fill="rgb(68,110,0)" textLength="8.40" lengthAdjust="spacing" xml:space="preserve">║</text><text x="72.4" y="146" fill="rgb(73,117,0)" textLength="8.40" lengthAdjust="spacing" xml:space="preserve">╚</text><text x="114.4" y="146" fill="rgb(83,133,0)" textLength="8.40" lengthAdjust="spacing" xml:space="preserve">║</text><text x="139.6" y="146" fill="rgb(90,143,0)" textLength="8.40" lengthAdjust="spacing" xml:space="preserve">║</text><text x="164.8" y="146" fill="rgb(96,153,0)" textLength="8.40" lengthAdjust="spacing" xml:space="preserve">║</text><text x="181.6" y="146" fill="rgb(101,159,0)" textLength="8.40" lengthAdjust="spacing" xml:space="preserve">╚</text><text x="190.0" y="146" fill="rgb(103,162,0)" textLength="8.40" lengthAdjust="spacing" xml:space="preserve">═</text><text x="198.4" y="146" fill="rgb(105,166,0)" textLength="8.40" lengthAdjust="spacing" xml:space="preserve">╝</text><text x="232.0" y="146" fill="rgb(114,179,0)" textLength="8.40" lengthAdjust="spacing" xml:space="preserve">║</text><text x="257.2" y="146" fill="rgb(121,188,5)" textLength="8.40" lengthAdjust="spacing" xml:space="preserve">║</text><text x="299.2" y="146" fill="rgb(138,202,29)" textLength="8.40" lengthAdjust="spacing" xml:space="preserve">║</text><text x="307.6" y="146" fill="rgb(141,205,34)" textLength="8.40" lengthAdjust="spacing" xml:space="preserve">╚</text><text x="366.4" y="146" fill="rgb(164,224,67)" textLength="8.40" lengthAdjust="spacing" xml:space="preserve">╔</text><text x="374.8" y="146" fill="rgb(167,227,72)" textLength="8.40" lengthAdjust="spacing" xml:space="preserve">╝</text><text x="400.0" y="146" fill="rgb(177,235,86)" textLength="8.40" lengthAdjust="spacing" xml:space="preserve">║</text><text x="416.8" y="146" fill="rgb(184,241,96)" textLength="8.40" lengthAdjust="spacing" xml:space="preserve">╚</text><text x="458.8" y="146" fill="rgb(200,255,120)" textLength="8.40" lengthAdjust="spacing" xml:space="preserve">║</text>
<text x="38.8" y="166" fill="rgb(64,104,0)" textLength="8.40" lengthAdjust="spacing" xml:space="preserve">╚</text><text x="47.2" y="166" fill="rgb(66,107,0)" textLength="8.40" lengthAdjust="spacing" xml:space="preserve">═</text><text x="55.6" y="166" fill="rgb(68,110,0)" textLength="8.40" lengthAdjust="spacing" xml:space="preserve">╝</text><text x="80.8" y="166" fill="rgb(75,120,0)" textLength="8.40" lengthAdjust="spacing" xml:space="preserve">╚</text><text x="89.2" y="166" fill="rgb(77,123,0)" textLength="8.40" lengthAdjust="spacing" xml:space="preserve">═</text><text x="97.6" y="166" fill="rgb(79,127,0)" textLength="8.40" lengthAdjust="spacing" xml:space="preserve">═</text><text x="106.0" y="166" fill="rgb(81,130,0)" textLength="8.40" lengthAdjust="spacing" xml:space="preserve">═</text><text x="114.4" y="166" fill="rgb(83,133,0)" textLength="8.40" lengthAdjust="spacing" xml:space="preserve">╝</text><text x="122.8" y="166" fill="rgb(86,136,0)" textLength="8.40" lengthAdjust="spacing" xml:space="preserve">╚</text><text x="131.2" y="166" fill="rgb(88,140,0)" textLength="8.40" lengthAdjust="spacing" xml:space="preserve">═</text><text x="139.6" y="166" fill="rgb(90,143,0)" textLength="8.40" lengthAdjust="spacing" xml:space="preserve">╝</text><text x="148.0" y="166" fill="rgb(92,146,0)" textLength="8.40" lengthAdjust="spacing" xml:space="preserve">╚</text><text x="156.4" y="166" fill="rgb(94,149,0)" textLength="8.40" lengthAdjust="spacing" xml:space="preserve">═</text><text x="164.8" y="166" fill="rgb(96,153,0)" textLength="8.40" lengthAdjust="spacing" xml:space="preserve">╝</text><text x="215.2" y="166" fill="rgb(109,172,0)" textLength="8.40" lengthAdjust="spacing" xml:space="preserve">╚</text><text x="223.6" y="166" fill="rgb(112,175,0)" textLength="8.40" lengthAdjust="spacing" xml:space="preserve">═</text><text x="232.0" y="166" fill="rgb(114,179,0)" textLength="8.40" lengthAdjust="spacing" xml:space="preserve">╝</text><text x="240.4" y="166" fill="rgb(116,182,0)" textLength="8.40" lengthAdjust="spacing" xml:space="preserve">╚</text><text x="248.8" y="166" fill="rgb(118,185,0)" textLength="8.40" lengthAdjust="spacing" xml:space="preserve">═</text><text x="257.2" y="166" fill="rgb(121,188,5)" textLength="8.40" lengthAdjust="spacing" xml:space="preserve">╝</text><text x="282.4" y="166" fill="rgb(131,196,19)" textLength="8.40" lengthAdjust="spacing" xml:space="preserve">╚</text><text x="290.8" y="166" fill="rgb(134,199,24)" textLength="8.40" lengthAdjust="spacing" xml:space="preserve">═</text><text x="299.2" y="166" fill="rgb(138,202,29)" textLength="8.40" lengthAdjust="spacing" xml:space="preserve">╝</text><text x="316.0" y="166" fill="rgb(144,207,38)" textLength="8.40" lengthAdjust="spacing" xml:space="preserve">╚</text><text x="324.4" y="166" fill="rgb(148,210,43)" textLength="8.40" lengthAdjust="spacing" xml:space="preserve">═</text><text x="332.8" y="166" fill="rgb(151,213,48)" textLength="8.40" lengthAdjust="spacing" xml:space="preserve">═</text><text x="341.2" y="166" fill="rgb(154,216,53)" textLength="8.40" lengthAdjust="spacing" xml:space="preserve">═</text><text x="349.6" y="166" fill="rgb(157,219,58)" textLength="8.40" lengthAdjust="spacing" xml:space="preserve">═</text><text x="358.0" y="166" fill="rgb(161,221,62)" textLength="8.40" lengthAdjust="spacing" xml:space="preserve">═</text><text x="366.4" y="166" fill="rgb(164,224,67)" textLength="8.40" lengthAdjust="spacing" xml:space="preserve">╝</text><text x="383.2" y="166" fill="rgb(170,230,77)" textLength="8.40" lengthAdjust="spacing" xml:space="preserve">╚</text><text x="391.6" y="166" fill="rgb(174,233,82)" textLength="8.40" lengthAdjust="spacing" xml:space="preserve">═</text><text x="400.0" y="166" fill="rgb(177,235,86)" textLength="8.40" lengthAdjust="spacing" xml:space="preserve">╝</text><text x="425.2" y="166" fill="rgb(187,244,101)" textLength="8.40" lengthAdjust="spacing" xml:space="preserve">╚</text><text x="433.6" y="166" fill="rgb(190,247,106)" textLength="8.40" lengthAdjust="spacing" xml:space="preserve">═</text><text x="442.0" y="166" fill="rgb(193,249,110)" textLength="8.40" lengthAdjust="spacing" xml:space="preserve">═</text><text x="450.4" y="166" fill="rgb(197,252,115)" textLength="8.40" lengthAdjust="spacing" xml:space="preserve">═</text><text x="458.8" y="166" fill="rgb(200,255,120)" textLength="8.40" lengthAdjust="spacing" xml:space="preserve">╝</text>
<text x="38.8" y="186" fill="rgb(128,138,150)" textLength="285.60" lengthAdjust="spacing" xml:space="preserve">Claude Code · any NVIDIA NIM model</text><text x="341.2" y="186" fill="rgb(88,96,106)" textLength="50.40" lengthAdjust="spacing" xml:space="preserve">v0.1.2</text>
<text x="38.8" y="206" fill="rgb(64,104,0)" textLength="8.40" lengthAdjust="spacing" xml:space="preserve">─</text><text x="47.2" y="206" fill="rgb(66,107,0)" textLength="8.40" lengthAdjust="spacing" xml:space="preserve">─</text><text x="55.6" y="206" fill="rgb(68,110,0)" textLength="8.40" lengthAdjust="spacing" xml:space="preserve">─</text><text x="64.0" y="206" fill="rgb(70,114,0)" textLength="8.40" lengthAdjust="spacing" xml:space="preserve">─</text><text x="72.4" y="206" fill="rgb(73,117,0)" textLength="8.40" lengthAdjust="spacing" xml:space="preserve">─</text><text x="80.8" y="206" fill="rgb(75,120,0)" textLength="8.40" lengthAdjust="spacing" xml:space="preserve">─</text><text x="89.2" y="206" fill="rgb(77,123,0)" textLength="8.40" lengthAdjust="spacing" xml:space="preserve">─</text><text x="97.6" y="206" fill="rgb(79,127,0)" textLength="8.40" lengthAdjust="spacing" xml:space="preserve">─</text><text x="106.0" y="206" fill="rgb(81,130,0)" textLength="8.40" lengthAdjust="spacing" xml:space="preserve">─</text><text x="114.4" y="206" fill="rgb(83,133,0)" textLength="8.40" lengthAdjust="spacing" xml:space="preserve">─</text><text x="122.8" y="206" fill="rgb(86,136,0)" textLength="8.40" lengthAdjust="spacing" xml:space="preserve">─</text><text x="131.2" y="206" fill="rgb(88,140,0)" textLength="8.40" lengthAdjust="spacing" xml:space="preserve">─</text><text x="139.6" y="206" fill="rgb(90,143,0)" textLength="8.40" lengthAdjust="spacing" xml:space="preserve">─</text><text x="148.0" y="206" fill="rgb(92,146,0)" textLength="8.40" lengthAdjust="spacing" xml:space="preserve">─</text><text x="156.4" y="206" fill="rgb(94,149,0)" textLength="8.40" lengthAdjust="spacing" xml:space="preserve">─</text><text x="164.8" y="206" fill="rgb(96,153,0)" textLength="8.40" lengthAdjust="spacing" xml:space="preserve">─</text><text x="173.2" y="206" fill="rgb(99,156,0)" textLength="8.40" lengthAdjust="spacing" xml:space="preserve">─</text><text x="181.6" y="206" fill="rgb(101,159,0)" textLength="8.40" lengthAdjust="spacing" xml:space="preserve">─</text><text x="190.0" y="206" fill="rgb(103,162,0)" textLength="8.40" lengthAdjust="spacing" xml:space="preserve">─</text><text x="198.4" y="206" fill="rgb(105,166,0)" textLength="8.40" lengthAdjust="spacing" xml:space="preserve">─</text><text x="206.8" y="206" fill="rgb(107,169,0)" textLength="8.40" lengthAdjust="spacing" xml:space="preserve">─</text><text x="215.2" y="206" fill="rgb(109,172,0)" textLength="8.40" lengthAdjust="spacing" xml:space="preserve">─</text><text x="223.6" y="206" fill="rgb(112,175,0)" textLength="8.40" lengthAdjust="spacing" xml:space="preserve">─</text><text x="232.0" y="206" fill="rgb(114,179,0)" textLength="8.40" lengthAdjust="spacing" xml:space="preserve">─</text><text x="240.4" y="206" fill="rgb(116,182,0)" textLength="8.40" lengthAdjust="spacing" xml:space="preserve">─</text><text x="248.8" y="206" fill="rgb(118,185,0)" textLength="8.40" lengthAdjust="spacing" xml:space="preserve">─</text><text x="257.2" y="206" fill="rgb(116,182,0)" textLength="8.40" lengthAdjust="spacing" xml:space="preserve">─</text><text x="265.6" y="206" fill="rgb(114,179,0)" textLength="8.40" lengthAdjust="spacing" xml:space="preserve">─</text><text x="274.0" y="206" fill="rgb(112,175,0)" textLength="8.40" lengthAdjust="spacing" xml:space="preserve">─</text><text x="282.4" y="206" fill="rgb(109,172,0)" textLength="8.40" lengthAdjust="spacing" xml:space="preserve">─</text><text x="290.8" y="206" fill="rgb(107,169,0)" textLength="8.40" lengthAdjust="spacing" xml:space="preserve">─</text><text x="299.2" y="206" fill="rgb(105,166,0)" textLength="8.40" lengthAdjust="spacing" xml:space="preserve">─</text><text x="307.6" y="206" fill="rgb(103,162,0)" textLength="8.40" lengthAdjust="spacing" xml:space="preserve">─</text><text x="316.0" y="206" fill="rgb(101,159,0)" textLength="8.40" lengthAdjust="spacing" xml:space="preserve">─</text><text x="324.4" y="206" fill="rgb(99,156,0)" textLength="8.40" lengthAdjust="spacing" xml:space="preserve">─</text><text x="332.8" y="206" fill="rgb(96,153,0)" textLength="8.40" lengthAdjust="spacing" xml:space="preserve">─</text><text x="341.2" y="206" fill="rgb(94,149,0)" textLength="8.40" lengthAdjust="spacing" xml:space="preserve">─</text><text x="349.6" y="206" fill="rgb(92,146,0)" textLength="8.40" lengthAdjust="spacing" xml:space="preserve">─</text><text x="358.0" y="206" fill="rgb(90,143,0)" textLength="8.40" lengthAdjust="spacing" xml:space="preserve">─</text><text x="366.4" y="206" fill="rgb(88,140,0)" textLength="8.40" lengthAdjust="spacing" xml:space="preserve">─</text><text x="374.8" y="206" fill="rgb(86,136,0)" textLength="8.40" lengthAdjust="spacing" xml:space="preserve">─</text><text x="383.2" y="206" fill="rgb(83,133,0)" textLength="8.40" lengthAdjust="spacing" xml:space="preserve">─</text><text x="391.6" y="206" fill="rgb(81,130,0)" textLength="8.40" lengthAdjust="spacing" xml:space="preserve">─</text><text x="400.0" y="206" fill="rgb(79,127,0)" textLength="8.40" lengthAdjust="spacing" xml:space="preserve">─</text><text x="408.4" y="206" fill="rgb(77,123,0)" textLength="8.40" lengthAdjust="spacing" xml:space="preserve">─</text><text x="416.8" y="206" fill="rgb(75,120,0)" textLength="8.40" lengthAdjust="spacing" xml:space="preserve">─</text><text x="425.2" y="206" fill="rgb(73,117,0)" textLength="8.40" lengthAdjust="spacing" xml:space="preserve">─</text><text x="433.6" y="206" fill="rgb(70,114,0)" textLength="8.40" lengthAdjust="spacing" xml:space="preserve">─</text><text x="442.0" y="206" fill="rgb(68,110,0)" textLength="8.40" lengthAdjust="spacing" xml:space="preserve">─</text><text x="450.4" y="206" fill="rgb(66,107,0)" textLength="8.40" lengthAdjust="spacing" xml:space="preserve">─</text><text x="458.8" y="206" fill="rgb(64,104,0)" textLength="8.40" lengthAdjust="spacing" xml:space="preserve">─</text>

<text x="38.8" y="246" fill="rgb(118,185,0)" textLength="8.40" lengthAdjust="spacing" xml:space="preserve">N</text><text x="47.2" y="246" fill="rgb(127,193,13)" textLength="8.40" lengthAdjust="spacing" xml:space="preserve">V</text><text x="55.6" y="246" fill="rgb(136,201,27)" textLength="8.40" lengthAdjust="spacing" xml:space="preserve">I</text><text x="64.0" y="246" fill="rgb(145,208,40)" textLength="8.40" lengthAdjust="spacing" xml:space="preserve">D</text><text x="72.4" y="246" fill="rgb(154,216,53)" textLength="8.40" lengthAdjust="spacing" xml:space="preserve">I</text><text x="80.8" y="246" fill="rgb(164,224,67)" textLength="8.40" lengthAdjust="spacing" xml:space="preserve">A</text><text x="97.6" y="246" fill="rgb(182,239,93)" textLength="8.40" lengthAdjust="spacing" xml:space="preserve">N</text><text x="106.0" y="246" fill="rgb(191,247,107)" textLength="8.40" lengthAdjust="spacing" xml:space="preserve">I</text><text x="114.4" y="246" fill="rgb(200,255,120)" textLength="8.40" lengthAdjust="spacing" xml:space="preserve">M</text><text x="551.2" y="246" fill="rgb(88,96,106)" textLength="243.60" lengthAdjust="spacing" xml:space="preserve">↑↓ move   ⏎ select   esc quit</text>
<text x="38.8" y="266" fill="rgb(64,104,0)" textLength="756.00" lengthAdjust="spacing" xml:space="preserve">──────────────────────────────────────────────────────────────────────────────────────────</text>
<text x="38.8" y="286" fill="rgb(118,185,0)" textLength="8.40" lengthAdjust="spacing" xml:space="preserve">❯</text><text x="55.6" y="286" fill="rgb(88,96,106)" textLength="117.60" lengthAdjust="spacing" xml:space="preserve">type to filter</text><text x="173.2" y="286" fill="rgb(118,185,0)" textLength="8.40" lengthAdjust="spacing" xml:space="preserve">▏</text>

<rect x="790.60" y="312.00" width="4.20" height="20.00" fill="rgb(118,185,0)"/><text x="38.8" y="326" fill="rgb(118,185,0)" textLength="8.40" lengthAdjust="spacing" xml:space="preserve">❯</text><text x="55.6" y="326" fill="rgb(88,96,106)" textLength="100.80" lengthAdjust="spacing" xml:space="preserve">nvidia      </text><text x="173.2" y="326" fill="#c9d3e0" font-weight="700" textLength="218.40" lengthAdjust="spacing" xml:space="preserve">nemotron-3-super-120b-a12b</text><text x="408.4" y="326" fill="rgb(88,96,106)" textLength="8.40" lengthAdjust="spacing" xml:space="preserve">[</text><text x="416.8" y="326" fill="rgb(86,200,220)" textLength="33.60" lengthAdjust="spacing" xml:space="preserve">last</text><text x="450.4" y="326" fill="rgb(88,96,106)" textLength="8.40" lengthAdjust="spacing" xml:space="preserve">·</text><text x="458.8" y="326" fill="rgb(118,185,0)" font-weight="700" textLength="42.00" lengthAdjust="spacing" xml:space="preserve">tools</text><text x="500.8" y="326" fill="rgb(88,96,106)" textLength="8.40" lengthAdjust="spacing" xml:space="preserve">]</text>
<rect x="790.60" y="332.00" width="4.20" height="20.00" fill="rgb(118,185,0)"/><text x="55.6" y="346" fill="rgb(88,96,106)" textLength="100.80" lengthAdjust="spacing" xml:space="preserve">z-ai        </text><text x="156.4" y="346" fill="#c9d3e0" textLength="92.40" lengthAdjust="spacing" xml:space="preserve">  glm-5.2  </text><text x="248.8" y="346" fill="rgb(88,96,106)" textLength="8.40" lengthAdjust="spacing" xml:space="preserve">[</text><text x="257.2" y="346" fill="rgb(232,168,40)" textLength="8.40" lengthAdjust="spacing" xml:space="preserve">★</text><text x="265.6" y="346" fill="rgb(88,96,106)" textLength="8.40" lengthAdjust="spacing" xml:space="preserve">·</text><text x="274.0" y="346" fill="rgb(118,185,0)" font-weight="700" textLength="42.00" lengthAdjust="spacing" xml:space="preserve">tools</text><text x="316.0" y="346" fill="rgb(88,96,106)" textLength="8.40" lengthAdjust="spacing" xml:space="preserve">]</text>
<rect x="790.60" y="352.00" width="4.20" height="20.00" fill="rgb(118,185,0)"/><text x="55.6" y="366" fill="rgb(88,96,106)" textLength="100.80" lengthAdjust="spacing" xml:space="preserve">meta        </text><text x="156.4" y="366" fill="#c9d3e0" textLength="210.00" lengthAdjust="spacing" xml:space="preserve">  llama-3.1-8b-instruct  </text><text x="366.4" y="366" fill="rgb(88,96,106)" textLength="8.40" lengthAdjust="spacing" xml:space="preserve">[</text><text x="374.8" y="366" fill="rgb(118,185,0)" font-weight="700" textLength="42.00" lengthAdjust="spacing" xml:space="preserve">tools</text><text x="416.8" y="366" fill="rgb(88,96,106)" textLength="8.40" lengthAdjust="spacing" xml:space="preserve">]</text>
<rect x="790.60" y="372.00" width="4.20" height="20.00" fill="rgb(118,185,0)"/><text x="55.6" y="386" fill="rgb(88,96,106)" textLength="100.80" lengthAdjust="spacing" xml:space="preserve">deepseek-ai </text><text x="156.4" y="386" fill="#c9d3e0" textLength="218.40" lengthAdjust="spacing" xml:space="preserve">  deepseek-v4-flash-0731  </text><text x="374.8" y="386" fill="rgb(88,96,106)" textLength="8.40" lengthAdjust="spacing" xml:space="preserve">[</text><text x="383.2" y="386" fill="rgb(118,185,0)" textLength="50.40" lengthAdjust="spacing" xml:space="preserve">tools?</text><text x="433.6" y="386" fill="rgb(88,96,106)" textLength="8.40" lengthAdjust="spacing" xml:space="preserve">]</text>
<rect x="790.60" y="392.00" width="4.20" height="20.00" fill="rgb(118,185,0)"/><text x="55.6" y="406" fill="rgb(88,96,106)" textLength="100.80" lengthAdjust="spacing" xml:space="preserve">meta        </text><text x="156.4" y="406" fill="#c9d3e0" textLength="218.40" lengthAdjust="spacing" xml:space="preserve">  llama-3.3-70b-instruct  </text><text x="374.8" y="406" fill="rgb(88,96,106)" textLength="8.40" lengthAdjust="spacing" xml:space="preserve">[</text><text x="383.2" y="406" fill="rgb(118,185,0)" textLength="50.40" lengthAdjust="spacing" xml:space="preserve">tools?</text><text x="433.6" y="406" fill="rgb(88,96,106)" textLength="8.40" lengthAdjust="spacing" xml:space="preserve">]</text>
<rect x="790.60" y="412.00" width="4.20" height="20.00" fill="rgb(118,185,0)"/><text x="55.6" y="426" fill="rgb(88,96,106)" textLength="100.80" lengthAdjust="spacing" xml:space="preserve">minimaxai   </text><text x="156.4" y="426" fill="#c9d3e0" textLength="117.60" lengthAdjust="spacing" xml:space="preserve">  minimax-m3  </text><text x="274.0" y="426" fill="rgb(88,96,106)" textLength="8.40" lengthAdjust="spacing" xml:space="preserve">[</text><text x="282.4" y="426" fill="rgb(118,185,0)" textLength="50.40" lengthAdjust="spacing" xml:space="preserve">tools?</text><text x="332.8" y="426" fill="rgb(88,96,106)" textLength="8.40" lengthAdjust="spacing" xml:space="preserve">]</text>
<rect x="790.60" y="432.00" width="4.20" height="20.00" fill="rgb(118,185,0)"/><text x="55.6" y="446" fill="rgb(88,96,106)" textLength="100.80" lengthAdjust="spacing" xml:space="preserve">mistralai   </text><text x="156.4" y="446" fill="#c9d3e0" textLength="235.20" lengthAdjust="spacing" xml:space="preserve">  mistral-large-2-instruct  </text><text x="391.6" y="446" fill="rgb(88,96,106)" textLength="8.40" lengthAdjust="spacing" xml:space="preserve">[</text><text x="400.0" y="446" fill="rgb(118,185,0)" textLength="50.40" lengthAdjust="spacing" xml:space="preserve">tools?</text><text x="450.4" y="446" fill="rgb(88,96,106)" textLength="8.40" lengthAdjust="spacing" xml:space="preserve">]</text>
<rect x="790.60" y="452.00" width="4.20" height="20.00" fill="rgb(118,185,0)"/><text x="55.6" y="466" fill="rgb(88,96,106)" textLength="100.80" lengthAdjust="spacing" xml:space="preserve">nvidia      </text><text x="156.4" y="466" fill="#c9d3e0" textLength="226.80" lengthAdjust="spacing" xml:space="preserve">  nemotron-3-nano-30b-a3b  </text><text x="383.2" y="466" fill="rgb(88,96,106)" textLength="8.40" lengthAdjust="spacing" xml:space="preserve">[</text><text x="391.6" y="466" fill="rgb(118,185,0)" textLength="50.40" lengthAdjust="spacing" xml:space="preserve">tools?</text><text x="442.0" y="466" fill="rgb(88,96,106)" textLength="8.40" lengthAdjust="spacing" xml:space="preserve">]</text>
<rect x="790.60" y="472.00" width="4.20" height="20.00" fill="rgb(118,185,0)"/><text x="55.6" y="486" fill="rgb(88,96,106)" textLength="100.80" lengthAdjust="spacing" xml:space="preserve">nvidia      </text><text x="156.4" y="486" fill="#c9d3e0" textLength="252.00" lengthAdjust="spacing" xml:space="preserve">  nemotron-3-ultra-550b-a55b  </text><text x="408.4" y="486" fill="rgb(88,96,106)" textLength="8.40" lengthAdjust="spacing" xml:space="preserve">[</text><text x="416.8" y="486" fill="rgb(118,185,0)" textLength="50.40" lengthAdjust="spacing" xml:space="preserve">tools?</text><text x="467.2" y="486" fill="rgb(88,96,106)" textLength="8.40" lengthAdjust="spacing" xml:space="preserve">]</text>
<rect x="790.60" y="492.00" width="4.20" height="20.00" fill="rgb(118,185,0)"/><text x="55.6" y="506" fill="rgb(88,96,106)" textLength="100.80" lengthAdjust="spacing" xml:space="preserve">openai      </text><text x="156.4" y="506" fill="#c9d3e0" textLength="134.40" lengthAdjust="spacing" xml:space="preserve">  gpt-oss-120b  </text><text x="290.8" y="506" fill="rgb(88,96,106)" textLength="8.40" lengthAdjust="spacing" xml:space="preserve">[</text><text x="299.2" y="506" fill="rgb(118,185,0)" textLength="50.40" lengthAdjust="spacing" xml:space="preserve">tools?</text><text x="349.6" y="506" fill="rgb(88,96,106)" textLength="8.40" lengthAdjust="spacing" xml:space="preserve">]</text>
<rect x="790.60" y="512.00" width="4.20" height="20.00" fill="rgb(118,185,0)"/><text x="55.6" y="526" fill="rgb(88,96,106)" textLength="100.80" lengthAdjust="spacing" xml:space="preserve">poolside    </text><text x="156.4" y="526" fill="#c9d3e0" textLength="142.80" lengthAdjust="spacing" xml:space="preserve">  laguna-xs-2.1  </text><text x="299.2" y="526" fill="rgb(88,96,106)" textLength="8.40" lengthAdjust="spacing" xml:space="preserve">[</text><text x="307.6" y="526" fill="rgb(118,185,0)" textLength="50.40" lengthAdjust="spacing" xml:space="preserve">tools?</text><text x="358.0" y="526" fill="rgb(88,96,106)" textLength="8.40" lengthAdjust="spacing" xml:space="preserve">]</text>
<rect x="790.60" y="532.00" width="4.20" height="20.00" fill="rgb(118,185,0)"/><text x="55.6" y="546" fill="rgb(88,96,106)" textLength="100.80" lengthAdjust="spacing" xml:space="preserve">stepfun-ai  </text><text x="156.4" y="546" fill="#c9d3e0" textLength="151.20" lengthAdjust="spacing" xml:space="preserve">  step-3.7-flash  </text><text x="307.6" y="546" fill="rgb(88,96,106)" textLength="8.40" lengthAdjust="spacing" xml:space="preserve">[</text><text x="316.0" y="546" fill="rgb(118,185,0)" textLength="50.40" lengthAdjust="spacing" xml:space="preserve">tools?</text><text x="366.4" y="546" fill="rgb(88,96,106)" textLength="8.40" lengthAdjust="spacing" xml:space="preserve">]</text>
<text x="55.6" y="566" fill="rgb(88,96,106)" textLength="100.80" lengthAdjust="spacing" xml:space="preserve">google      </text><text x="156.4" y="566" fill="#c9d3e0" textLength="630.00" lengthAdjust="spacing" xml:space="preserve">  gemma-3-12b-it                                                           </text><text x="786.4" y="566" fill="rgb(88,96,106)" textLength="8.40" lengthAdjust="spacing" xml:space="preserve">│</text>
<text x="55.6" y="586" fill="rgb(88,96,106)" textLength="100.80" lengthAdjust="spacing" xml:space="preserve">ibm         </text><text x="156.4" y="586" fill="#c9d3e0" textLength="630.00" lengthAdjust="spacing" xml:space="preserve">  granite-3.0-8b-instruct                                                  </text><text x="786.4" y="586" fill="rgb(88,96,106)" textLength="8.40" lengthAdjust="spacing" xml:space="preserve">│</text>

<text x="38.8" y="626" fill="rgb(88,96,106)" textLength="75.60" lengthAdjust="spacing" xml:space="preserve">16 models</text><text x="114.4" y="626" fill="rgb(88,96,106)" textLength="58.80" lengthAdjust="spacing" xml:space="preserve">   ·   </text><text x="173.2" y="626" fill="rgb(118,185,0)" font-weight="700" textLength="42.00" lengthAdjust="spacing" xml:space="preserve">tools</text><text x="215.2" y="626" fill="#c9d3e0" textLength="117.60" lengthAdjust="spacing" xml:space="preserve"> = verified · </text><text x="332.8" y="626" fill="rgb(118,185,0)" textLength="50.40" lengthAdjust="spacing" xml:space="preserve">tools?</text><text x="383.2" y="626" fill="#c9d3e0" textLength="100.80" lengthAdjust="spacing" xml:space="preserve"> = likely · </text><text x="484.0" y="626" fill="rgb(232,168,40)" textLength="8.40" lengthAdjust="spacing" xml:space="preserve">★</text><text x="492.4" y="626" fill="#c9d3e0" textLength="75.60" lengthAdjust="spacing" xml:space="preserve"> = pinned</text>
</svg>
